<svg xmlns="http://www.w3.org/2000/svg" width="240" height="240" viewBox="0 0 240 240">
    <g fill="none" fill-rule="evenodd">
        <rect width="240" height="240" fill="none"/>
        <path fill="white" fill-rule="nonzero"
              d="M174.97122 129.884469L173.15922 130.733469C172.659109 130.967793 172.443646 131.563169 172.677969 132.06328 172.912293 132.563391 173.507669 132.778854 174.00778 132.544531L175.81978 131.695531C176.319891 131.461207 176.535354 130.865831 176.301031 130.36572 176.066707 129.865609 175.471331 129.650146 174.97122 129.884469zM168.91484 132.721366L165.518712 134.311592C165.018544 134.545794 164.802936 135.141118 165.037138 135.641286 165.27134 136.141454 165.866665 136.357062 166.366833 136.12286L169.76296 134.532634C170.263128 134.298432 170.478736 133.703108 170.244534 133.20294 170.010332 132.702772 169.415008 132.487164 168.91484 132.721366zM161.2731 136.299586L157.876972 137.889811C157.376804 138.124013 157.161196 138.719338 157.395398 139.219505 157.6296 139.719673 158.224925 139.935281 158.725093 139.701079L162.12122 138.110854C162.621388 137.876652 162.836996 137.281327 162.602794 136.78116 162.368592 136.280992 161.773268 136.065384 161.2731 136.299586zM153.63136 139.877805L150.235232 141.468031C149.735064 141.702233 149.519456 142.297557 149.753658 142.797725 149.98786 143.297893 150.583185 143.513501 151.083352 143.279299L154.47948 141.689073C154.979648 141.454871 155.195256 140.859547 154.961054 140.359379 154.726852 139.859211 154.131528 139.643603 153.63136 139.877805zM145.99172 143.455769L144.17972 144.304769C143.679609 144.539093 143.464146 145.134469 143.698469 145.63458 143.932793 146.134691 144.528169 146.350154 145.02828 146.115831L146.84028 145.266831C147.340391 145.032507 147.555854 144.437131 147.321531 143.93702 147.087207 143.436909 146.491831 143.221446 145.99172 143.455769zM63.1802198 116.695531L64.9922198 117.544531C65.4923307 117.778854 66.0877074 117.563391 66.3220309 117.06328 66.5563544 116.563169 66.3408912 115.967793 65.8407802 115.733469L64.0287802 114.884469C63.5286693 114.650146 62.9332926 114.865609 62.6989691 115.36572 62.4646456 115.865831 62.6801088 116.461207 63.1802198 116.695531zM69.2370398 119.532634L72.6331674 121.12286C73.1333353 121.357062 73.7286596 121.141454 73.9628616 120.641286 74.1970636 120.141118 73.9814556 119.545794 73.4812877 119.311592L70.0851602 117.721366C69.5849923 117.487164 68.9896679 117.702772 68.755466 118.20294 68.521264 118.703108 68.736872 119.298432 69.2370398 119.532634zM76.8787799 123.110854L80.2749075 124.701079C80.7750753 124.935281 81.3703997 124.719673 81.6046017 124.219505 81.8388036 123.719338 81.6231957 123.124013 81.1230278 122.889811L77.7269002 121.299586C77.2267324 121.065384 76.631408 121.280992 76.397206 121.78116 76.1630041 122.281327 76.378612 122.876652 76.8787799 123.110854zM84.52052 126.689073L87.9166475 128.279299C88.4168154 128.513501 89.0121398 128.297893 89.2463417 127.797725 89.4805437 127.297557 89.2649357 126.702233 88.7647679 126.468031L85.3686403 124.877805C84.8684724 124.643603 84.2731481 124.859211 84.0389461 125.359379 83.8047441 125.859547 84.0203521 126.454871 84.52052 126.689073zM92.1597198 130.266831L93.9717198 131.115831C94.4718307 131.350154 95.0672074 131.134691 95.3015309 130.63458 95.5358544 130.134469 95.3203912 129.539093 94.8202802 129.304769L93.0082802 128.455769C92.5081693 128.221446 91.9127926 128.436909 91.6784691 128.93702 91.4441456 129.437131 91.6596088 130.032507 92.1597198 130.266831zM122 73L122 75C122 75.5522847 122.447715 76 123 76 123.552285 76 124 75.5522847 124 75L124 73C124 72.4477153 123.552285 72 123 72 122.447715 72 122 72.4477153 122 73zM122 79.6875L122 83.4375C122 83.9897847 122.447715 84.4375 123 84.4375 123.552285 84.4375 124 83.9897847 124 83.4375L124 79.6875C124 79.1352153 123.552285 78.6875 123 78.6875 122.447715 78.6875 122 79.1352153 122 79.6875zM122 88.1255002L122 91.8755002C122 92.427785 122.447715 92.8755002 123 92.8755002 123.552285 92.8755002 124 92.427785 124 91.8755002L124 88.1255002C124 87.5732155 123.552285 87.1255002 123 87.1255002 122.447715 87.1255002 122 87.5732155 122 88.1255002zM122 96.5635004L122 100.3135C122 100.865785 122.447715 101.3135 123 101.3135 123.552285 101.3135 124 100.865785 124 100.3135L124 96.5635004C124 96.0112157 123.552285 95.5635004 123 95.5635004 122.447715 95.5635004 122 96.0112157 122 96.5635004zM122 105L122 107C122 107.552285 122.447715 108 123 108 123.552285 108 124 107.552285 124 107L124 105C124 104.447715 123.552285 104 123 104 122.447715 104 122 104.447715 122 105z"/>
        <g transform="translate(25 35)">
            <path fill="#FFB066"
                  d="M44,71.998 C44,84.148 34.15,93.998 22,93.998 C9.85,93.998 0,84.148 0,71.998 C0,59.848 9.85,49.998 22,49.998 C34.15,49.998 44,59.848 44,71.998 Z"/>
            <path fill="#263340" fill-rule="nonzero"
                  d="M43,71.998 C43,60.4002847 33.5977153,50.998 22,50.998 C10.4022847,50.998 1,60.4002847 1,71.998 C1,83.5957153 10.4022847,92.998 22,92.998 C33.5977153,92.998 43,83.5957153 43,71.998 Z M45,71.998 C45,84.7002847 34.7022847,94.998 22,94.998 C9.29771525,94.998 -1,84.7002847 -1,71.998 C-1,59.2957153 9.29771525,48.998 22,48.998 C34.7022847,48.998 45,59.2957153 45,71.998 Z"/>
            <path fill="#FFFFFF"
                  d="M32,72 C32,77.522 27.522,82 22,82 C16.478,82 12,77.522 12,72 C12,66.478 16.478,62 22,62 C27.522,62 32,66.478 32,72"/>
            <path fill="#263340" fill-rule="nonzero"
                  d="M31,72 C31,67.0302847 26.9697153,63 22,63 C17.0302847,63 13,67.0302847 13,72 C13,76.9697153 17.0302847,81 22,81 C26.9697153,81 31,76.9697153 31,72 Z M33,72 C33,78.0742847 28.0742847,83 22,83 C15.9257153,83 11,78.0742847 11,72 C11,65.9257153 15.9257153,61 22,61 C28.0742847,61 33,65.9257153 33,72 Z"/>
            <g transform="translate(20 59)">
                <path fill="#FFFFFF" d="M0,0 L4,0"/>
                <path fill="#263340" fill-rule="nonzero"
                      d="M0,1 L4,1 C4.55228475,1 5,0.55228475 5,0 C5,-0.55228475 4.55228475,-1 4,-1 L0,-1 C-0.55228475,-1 -1,-0.55228475 -1,0 C-1,0.55228475 -0.55228475,1 0,1 Z"/>
            </g>
            <g transform="translate(22 59)">
                <path fill="#FFFFFF" d="M0,3 L0,0"/>
                <path fill="#263340" fill-rule="nonzero"
                      d="M1,3 L1,0 C1,-0.55228475 0.55228475,-1 0,-1 C-0.55228475,-1 -1,-0.55228475 -1,0 L-1,3 C-1,3.55228475 -0.55228475,4 0,4 C0.55228475,4 1,3.55228475 1,3 Z"/>
            </g>
            <g transform="translate(19 66)">
                <path fill="#FFFFFF" d="M0.793,8.6865 L7.606,0.3935"/>
                <path fill="#263340" fill-rule="nonzero"
                      d="M1.56568545,9.3212891 L8.37868545,1.0282891 C8.72926979,0.601546705 8.66753149,-0.0286011129 8.2407891,-0.37918545 C7.81404671,-0.729769787 7.18389889,-0.668031486 6.83331455,-0.241289096 L0.0203145503,8.0517109 C-0.330269787,8.47845329 -0.268531486,9.10860111 0.158210904,9.45918545 C0.584953295,9.80976979 1.21510111,9.74803149 1.56568545,9.3212891 Z"/>
            </g>
            <path fill="#FFFFFF"
                  d="M23.5,72 C23.5,72.828 22.828,73.5 22,73.5 C21.172,73.5 20.5,72.828 20.5,72 C20.5,71.172 21.172,70.5 22,70.5 C22.828,70.5 23.5,71.172 23.5,72"/>
            <path fill="#263340" fill-rule="nonzero"
                  d="M22.5,72 C22.5,71.7242847 22.2757153,71.5 22,71.5 C21.7242847,71.5 21.5,71.7242847 21.5,72 C21.5,72.2757153 21.7242847,72.5 22,72.5 C22.2757153,72.5 22.5,72.2757153 22.5,72 Z M24.5,72 C24.5,73.3802847 23.3802847,74.5 22,74.5 C20.6197153,74.5 19.5,73.3802847 19.5,72 C19.5,70.6197153 20.6197153,69.5 22,69.5 C23.3802847,69.5 24.5,70.6197153 24.5,72 Z"/>
            <path fill="#FFFFFF" fill-rule="nonzero"
                  d="M6.5572131 64.892975C9.31862562 58.9153974 15.3135928 54.9976 22.0004 54.9976 22.5526847 54.9976 23.0004 54.5498847 23.0004 53.9976 23.0004 53.4453153 22.5526847 52.9976 22.0004 52.9976 14.525956 52.9976 7.82688437 57.3755397 4.7415869 64.054225 4.50997249 64.5555964 4.72865369 65.1497987 5.23002502 65.3814131 5.73139636 65.6130275 6.3255987 65.3943463 6.5572131 64.892975zM5 71.998C5 70.4360606 5.21060288 68.9049207 5.62211336 67.432096 5.77073098 66.9001832 5.46000882 66.3485043 4.928096 66.1998866 4.39618318 66.051269 3.84450426 66.3619912 3.69588664 66.893904 3.23550616 68.5416378 3 70.2538313 3 71.998 3 72.5502847 3.44771525 72.998 4 72.998 4.55228475 72.998 5 72.5502847 5 71.998z"/>
            <path fill="#52301F"
                  d="M116,67 L116,67 C116,61.478 111.522,57 106,57 L84,57 C78.478,57 74,61.478 74,67 C69.029,67 65,71.029 65,76 L65,101 L125,101 L125,76 C125,71.029 120.971,67 116,67"/>
            <path fill="#263340" fill-rule="nonzero"
                  d="M126,76 L126,101 C126,101.552285 125.552285,102 125,102 L65,102 C64.4477153,102 64,101.552285 64,101 L64,76 C64,70.800248 67.9676181,66.5280485 73.0408639,66.0453917 C73.5248142,60.417929 78.2473247,56 84,56 L106,56 C111.752675,56 116.475186,60.417929 116.959136,66.0453917 C122.032382,66.5280485 126,70.800248 126,76 Z M124,76 C124,71.5812847 120.418715,68 116,68 C115.447715,68 115,67.5522847 115,67 C115,62.0302847 110.969715,58 106,58 L84,58 C79.0302847,58 75,62.0302847 75,67 C75,67.5522847 74.5522847,68 74,68 C69.5812847,68 66,71.5812847 66,76 L66,100 L124,100 L124,76 Z"/>
            <path fill="#FFC69C"
                  d="M77,106.5 C77,110.643 73.643,114 69.5,114 C65.357,114 62,110.643 62,106.5 C62,102.357 65.357,99 69.5,99 C73.643,99 77,102.357 77,106.5"/>
            <path fill="#263340" fill-rule="nonzero"
                  d="M76,106.5 C76,102.909285 73.0907153,100 69.5,100 C65.9092847,100 63,102.909285 63,106.5 C63,110.090715 65.9092847,113 69.5,113 C73.0907153,113 76,110.090715 76,106.5 Z M78,106.5 C78,111.195285 74.1952847,115 69.5,115 C64.8047153,115 61,111.195285 61,106.5 C61,101.804715 64.8047153,98 69.5,98 C74.1952847,98 78,101.804715 78,106.5 Z"/>
            <path fill="#FFC69C"
                  d="M128,107 C128,111.143 124.643,114.5 120.5,114.5 C116.357,114.5 113,111.143 113,107 C113,102.857 116.357,99.5 120.5,99.5 C124.643,99.5 128,102.857 128,107"/>
            <path fill="#263340" fill-rule="nonzero"
                  d="M127,107 C127,103.409285 124.090715,100.5 120.5,100.5 C116.909285,100.5 114,103.409285 114,107 C114,110.590715 116.909285,113.5 120.5,113.5 C124.090715,113.5 127,110.590715 127,107 Z M129,107 C129,111.695285 125.195285,115.5 120.5,115.5 C115.804715,115.5 112,111.695285 112,107 C112,102.304715 115.804715,98.5 120.5,98.5 C125.195285,98.5 129,102.304715 129,107 Z"/>
            <path fill="#43B7BF"
                  d="M124,178 L66,178 L66,155.771 C66,150.081 69.996,145.173 75.568,144.021 L95,140 L114.432,144.021 C120.004,145.173 124,150.081 124,155.771 L124,178 Z"/>
            <path fill="#263340" fill-rule="nonzero"
                  d="M123,155.771 C123,150.554963 119.336832,146.056213 114.229366,145.000255 L95,141.021185 L75.7704661,145.000289 C70.6631677,146.056213 67,150.554963 67,155.771 L67,177 L123,177 L123,155.771 Z M124,179 L66,179 C65.4477153,179 65,178.552285 65,178 L65,155.771 C65,149.60654 69.3293191,144.289686 75.3653661,143.041745 L94.7973661,139.020745 C94.9310394,138.993085 95.0689606,138.993085 95.2026339,139.020745 L114.634466,143.041711 C120.670681,144.289686 125,149.60654 125,155.771 L125,178 C125,178.552285 124.552285,179 124,179 Z"/>
            <path fill="#263340" fill-rule="nonzero"
                  d="M105,179 C104.447715,179 104,178.552285 104,178 L104,142 C104,141.347488 104.614814,140.869777 105.247093,141.031008 L108.247093,141.796008 C108.690035,141.908958 109,142.307884 109,142.765 L109,178 C109,178.552285 108.552285,179 108,179 L105,179 Z M107,177 L107,143.542 L106,143.287 L106,177 L107,177 Z"/>
            <polygon fill="#6289D9" points="85 178 105 178 105 144 85 144"/>
            <path fill="#263340" fill-rule="nonzero"
                  d="M85,179 C84.4477153,179 84,178.552285 84,178 L84,144 C84,143.447715 84.4477153,143 85,143 L105,143 C105.552285,143 106,143.447715 106,144 L106,178 C106,178.552285 105.552285,179 105,179 L85,179 Z M104,177 L104,145 L86,145 L86,177 L104,177 Z"/>
            <g transform="translate(85 152)">
                <path fill="#6289D9"
                      d="M19.791,0.1582 C17.592,3.1812 14.025,5.1472 10,5.1472 C5.905,5.1472 2.285,3.1132 0.096,0.0002"/>
                <path fill="#263340" fill-rule="nonzero"
                      d="M18.9823218,-0.430051224 C16.9058577,2.42449674 13.5971776,4.1472 10,4.1472 C6.33935599,4.1472 2.98042687,2.36366924 0.914007908,-0.575006974 C0.596329868,-1.02678027 -0.0274336813,-1.13548595 -0.479206974,-0.817807908 C-0.930980267,-0.500129868 -1.03968595,0.123633681 -0.722007908,0.575406974 C1.71508286,4.04121948 5.68128264,6.1472 10,6.1472 C14.2438587,6.1472 18.1507506,4.11303073 20.5996782,0.746451224 C20.9245604,0.299830565 20.8258719,-0.32559606 20.3792512,-0.650478241 C19.9326306,-0.975360421 19.3072039,-0.876671884 18.9823218,-0.430051224 Z"/>
            </g>
            <path fill="#FFC69C"
                  d="M95,153 L95,153 C89.478,153 85,148.522 85,143 L85,115 L105,115 L105,143 C105,148.522 100.522,153 95,153"/>
            <path fill="#263340" fill-rule="nonzero"
                  d="M86,143 C86,147.969715 90.0302847,152 95,152 C99.9697153,152 104,147.969715 104,143 L104,116 L86,116 L86,143 Z M95,154 C88.9257153,154 84,149.074285 84,143 L84,115 C84,114.447715 84.4477153,114 85,114 L105,114 C105.552285,114 106,114.447715 106,115 L106,143 C106,149.074285 101.074285,154 95,154 Z"/>
            <path fill="#FFC69C"
                  d="M110,78 L80,78 C74.478,78 70,82.478 70,88 L70,120 C70,129.941 78.059,138 88,138 C89.249,139.874 91.353,141 93.605,141 L96.395,141 C98.647,141 100.751,139.874 102,138 C111.941,138 120,129.941 120,120 L120,88 C120,82.478 115.522,78 110,78"/>
            <path fill="#263340" fill-rule="nonzero"
                  d="M69,120 L69,88 C69,81.9257153 73.9257153,77 80,77 L110,77 C116.074285,77 121,81.9257153 121,88 L121,120 C121,130.320312 112.771424,138.719009 102.517269,138.993095 C101.059149,140.88123 98.8007156,142 96.395,142 L93.605,142 C91.1992844,142 88.940851,140.88123 87.4827314,138.993095 C77.2285756,138.719009 69,130.320312 69,120 Z M110,79 L80,79 C75.0302847,79 71,83.0302847 71,88 L71,120 C71,129.388715 78.6112847,137 88,137 C88.3343968,137 88.6466629,137.167144 88.8321186,137.445402 C89.895604,139.041056 91.6872906,140 93.605,140 L96.395,140 C98.3127094,140 100.104396,139.041056 101.167881,137.445402 C101.353337,137.167144 101.665603,137 102,137 C111.388715,137 119,129.388715 119,120 L119,88 C119,83.0302847 114.969715,79 110,79 Z"/>
            <path fill="#52301F"
                  d="M93.6055,140 C91.6875,140 89.8965,139.041 88.8325,137.445 C88.6465,137.167 88.3345,137 88.0005,137 C78.6115,137 71.0005,129.389 71.0005,120 L71.0005,107 L72.0005,113.96 C72.0005,123.073 79.2765,130.519 88.3245,130.792 C89.6325,132.459 91.6315,133.439 93.7725,133.439 L96.2275,133.439 C98.3685,133.439 100.3675,132.459 101.6755,130.792 C110.7235,130.519 118.0005,123.073 118.0005,113.96 L119.0005,107 L119.0005,120 C119.0005,129.389 111.3885,137 102.0005,137 C101.6665,137 101.3535,137.167 101.1675,137.445 C100.1035,139.041 98.3125,140 96.3945,140 L93.6055,140 Z"/>
            <path fill="#52301F"
                  d="M109,134 L81,134 L81,120 C81,116.687 83.687,114 87,114 L103,114 C106.313,114 109,116.687 109,120 L109,134 Z"/>
            <path fill="#FFC69C"
                  d="M97,130 L93,130 C88.582,130 85,126.418 85,122 C85,119.791 86.791,118 89,118 L101,118 C103.209,118 105,119.791 105,122 C105,126.418 101.418,130 97,130"/>
            <path fill="#263340" fill-rule="nonzero"
                  d="M67,100 L74,100 C74.5522847,100 75,99.5522847 75,99 C75,98.4477153 74.5522847,98 74,98 L67,98 C66.4477153,98 66,98.4477153 66,99 C66,99.5522847 66.4477153,100 67,100 Z"/>
            <path fill="#FFFFFF"
                  d="M89,110 L77,110 C75.343,110 74,108.657 74,107 L74,101 C74,99.343 75.343,98 77,98 L89,98 C90.657,98 92,99.343 92,101 L92,107 C92,108.657 90.657,110 89,110"/>
            <path fill="#263340" fill-rule="nonzero"
                  d="M89,109 C90.1047153,109 91,108.104715 91,107 L91,101 C91,99.8952847 90.1047153,99 89,99 L77,99 C75.8952847,99 75,99.8952847 75,101 L75,107 C75,108.104715 75.8952847,109 77,109 L89,109 Z M89,111 L77,111 C74.7907153,111 73,109.209285 73,107 L73,101 C73,98.7907153 74.7907153,97 77,97 L89,97 C91.2092847,97 93,98.7907153 93,101 L93,107 C93,109.209285 91.2092847,111 89,111 Z"/>
            <path fill="#FFFFFF"
                  d="M113,110 L101,110 C99.343,110 98,108.657 98,107 L98,101 C98,99.343 99.343,98 101,98 L113,98 C114.657,98 116,99.343 116,101 L116,107 C116,108.657 114.657,110 113,110"/>
            <path fill="#263340" fill-rule="nonzero"
                  d="M113,109 C114.104715,109 115,108.104715 115,107 L115,101 C115,99.8952847 114.104715,99 113,99 L101,99 C99.8952847,99 99,99.8952847 99,101 L99,107 C99,108.104715 99.8952847,109 101,109 L113,109 Z M113,111 L101,111 C98.7907153,111 97,109.209285 97,107 L97,101 C97,98.7907153 98.7907153,97 101,97 L113,97 C115.209285,97 117,98.7907153 117,101 L117,107 C117,109.209285 115.209285,111 113,111 Z"/>
            <path fill="#263340" fill-rule="nonzero"
                  d="M92 102L98 102C98.5522847 102 99 101.552285 99 101 99 100.447715 98.5522847 100 98 100L92 100C91.4477153 100 91 100.447715 91 101 91 101.552285 91.4477153 102 92 102zM116 100L123 100C123.552285 100 124 99.5522847 124 99 124 98.4477153 123.552285 98 123 98L116 98C115.447715 98 115 98.4477153 115 99 115 99.5522847 115.447715 100 116 100z"/>
            <path fill="#263340"
                  d="M86.5 104.5C86.5 105.881 85.381 107 84 107 82.619 107 81.5 105.881 81.5 104.5 81.5 103.119 82.619 102 84 102 85.381 102 86.5 103.119 86.5 104.5M108.5 104.5C108.5 105.881 107.381 107 106 107 104.619 107 103.5 105.881 103.5 104.5 103.5 103.119 104.619 102 106 102 107.381 102 108.5 103.119 108.5 104.5"/>
            <path fill="#263340" fill-rule="nonzero"
                  d="M112.929743 94.294005C112.586681 94.055375 112.002762 93.7419217 111.189129 93.4420545 108.797062 92.5604494 105.891036 92.3557619 102.567811 93.2196503 101.766031 93.4280766 101.285024 94.2470101 101.49345 95.0487893 101.701877 95.8505685 102.52081 96.3315761 103.322589 96.1231497 106.030822 95.4191316 108.31491 95.5800125 110.151685 96.2569628 110.713479 96.4640141 111.073877 96.6574793 111.216657 96.756795 111.896737 97.2298508 112.831539 97.062024 113.304595 96.3819433 113.777651 95.7018627 113.609824 94.7670608 112.929743 94.294005zM79.8018433 96.756795C79.9446227 96.6574793 80.3050211 96.4640141 80.8668153 96.2569628 82.7035904 95.5800125 84.9876779 95.4191316 87.6959107 96.1231497 88.4976899 96.3315761 89.3166234 95.8505685 89.5250497 95.0487893 89.7334761 94.2470101 89.2524685 93.4280766 88.4506893 93.2196503 85.127464 92.3557619 82.2214376 92.5604494 79.8293705 93.4420545 79.0157381 93.7419217 78.4318191 94.055375 78.0887567 94.294005 77.408676 94.7670608 77.2408492 95.7018627 77.713905 96.3819433 78.1869608 97.062024 79.1217627 97.2298508 79.8018433 96.756795z"/>
            <path fill="#FFFFFF"
                  d="M103,120 C103,124.416 99.418,127.995 95,127.995 C90.582,127.995 87,124.416 87,120 L103,120 Z"/>
            <path fill="#263340" fill-rule="nonzero"
                  d="M88.0709861,121 C88.5564977,124.38957 91.4736433,126.995 95,126.995 C98.5263567,126.995 101.443502,124.38957 101.929014,121 L88.0709861,121 Z M104,120 C104,124.968177 99.9703932,128.995 95,128.995 C90.0296068,128.995 86,124.968177 86,120 C86,119.447715 86.4477153,119 87,119 L103,119 C103.552285,119 104,119.447715 104,120 Z"/>
            <g transform="translate(40 178)">
                <path fill="#43B7BF" d="M0,0 L110,0"/>
                <path fill="#263340" fill-rule="nonzero"
                      d="M0,1 L110,1 C110.552285,1 111,0.55228475 111,0 C111,-0.55228475 110.552285,-1 110,-1 L0,-1 C-0.55228475,-1 -1,-0.55228475 -1,0 C-1,0.55228475 -0.55228475,1 0,1 Z"/>
            </g>
            <path fill="#263340" fill-rule="nonzero"
                  d="M77 169L77 178C77 178.552285 77.4477153 179 78 179 78.5522847 179 79 178.552285 79 178L79 169C79 168.447715 78.5522847 168 78 168 77.4477153 168 77 168.447715 77 169zM111 169L111 178C111 178.552285 111.447715 179 112 179 112.552285 179 113 178.552285 113 178L113 169C113 168.447715 112.552285 168 112 168 111.447715 168 111 168.447715 111 169zM84 143.287L83 143.542 83 177 84 177 84 143.287zM85 179L82 179C81.4477153 179 81 178.552285 81 178L81 142.765C81 142.307884 81.3099654 141.908958 81.7529071 141.796008L84.7529071 141.031008C85.3851859 140.869777 86 141.347488 86 142L86 178C86 178.552285 85.5522847 179 85 179zM91 108L91 111C91 112.656285 92.3437153 114 94 114L96 114C97.6562847 114 99 112.656285 99 111L99 108C99 107.447715 98.5522847 107 98 107 97.4477153 107 97 107.447715 97 108L97 111C97 111.551715 96.5517153 112 96 112L94 112C93.4482847 112 93 111.551715 93 111L93 108C93 107.447715 92.5522847 107 92 107 91.4477153 107 91 107.447715 91 108z"/>
            <g transform="translate(76 76)">
                <path fill="#52301F" d="M12,0 C12,3.313 9.313,6 6,6 C3.101,6 0.682,3.943 0.122,1.209"/>
                <path fill="#263340" fill-rule="nonzero"
                      d="M11,0 C11,2.76071525 8.76071525,5 6,5 C3.61493403,5 1.57427876,3.3157277 1.10166053,1.008338 C0.990837974,0.46728643 0.462389576,0.118516905 -0.0786619968,0.229339465 C-0.61971357,0.340162026 -0.968483095,0.868610424 -0.857660535,1.409662 C-0.195375913,4.64303013 2.66031611,7 6,7 C9.86528475,7 13,3.86528475 13,0 C13,-0.55228475 12.5522847,-1 12,-1 C11.4477153,-1 11,-0.55228475 11,0 Z"/>
            </g>
            <g transform="translate(88 76)">
                <path fill="#52301F"
                      d="M13.8525,0 C13.9885,0.646 14.0335,1.324 13.9755,2.017 C13.6565,5.869 10.2735,8.733 6.4205,8.413 C2.5685,8.094 -0.2955,4.711 0.0245,0.858"/>
                <path fill="#263340" fill-rule="nonzero"
                      d="M12.8739502,0.206010481 C12.9918929,0.766238208 13.0280888,1.34688065 12.9789841,1.93359751 C12.705506,5.23590451 9.80585664,7.6907183 6.50326721,7.41643109 C3.20159549,7.14300602 0.746781699,4.24335664 1.02106891,0.940767208 C1.06677998,0.390377397 0.657657018,-0.092857842 0.107267208,-0.138568908 C-0.443122603,-0.184279975 -0.926357842,0.224842982 -0.972068908,0.775232792 C-1.33778291,5.17865792 1.93541906,9.04499519 6.3379684,9.40958845 C10.7411579,9.77528291 14.6074952,6.50208094 14.9720884,2.0995316 C15.0373437,1.3198486 14.9889927,0.544218434 14.8310498,-0.206010481 C14.7172733,-0.746448604 14.1869276,-1.09232623 13.6464895,-0.978549785 C13.1060514,-0.864773338 12.7601738,-0.334427642 12.8739502,0.206010481 Z"/>
            </g>
            <g transform="translate(102 76)">
                <path fill="#52301F" d="M12,0 C12,3.313 9.313,6 6,6 C2.687,6 0,3.313 0,0"/>
                <path fill="#263340" fill-rule="nonzero"
                      d="M11,0 C11,2.76071525 8.76071525,5 6,5 C3.23928475,5 1,2.76071525 1,0 C1,-0.55228475 0.55228475,-1 0,-1 C-0.55228475,-1 -1,-0.55228475 -1,0 C-1,3.86528475 2.13471525,7 6,7 C9.86528475,7 13,3.86528475 13,0 C13,-0.55228475 12.5522847,-1 12,-1 C11.4477153,-1 11,-0.55228475 11,0 Z"/>
            </g>
            <path fill="#54D192"
                  d="M120,22 C120,34.15 110.15,44 98,44 C85.85,44 76,34.15 76,22 C76,9.85 85.85,0 98,0 C110.15,0 120,9.85 120,22"/>
            <path fill="#263340" fill-rule="nonzero"
                  d="M119,22 C119,10.4022847 109.597715,1 98,1 C86.4022847,1 77,10.4022847 77,22 C77,33.5977153 86.4022847,43 98,43 C109.597715,43 119,33.5977153 119,22 Z M121,22 C121,34.7022847 110.702285,45 98,45 C85.2977153,45 75,34.7022847 75,22 C75,9.29771525 85.2977153,-1 98,-1 C110.702285,-1 121,9.29771525 121,22 Z"/>
            <path fill="#FFFFFF" fill-rule="nonzero"
                  d="M82.5572389 14.895919C85.3185582 8.91757581 91.3133926 4.9996 98.0004 4.9996 98.5526847 4.9996 99.0004 4.55188475 99.0004 3.9996 99.0004 3.44731525 98.5526847 2.9996 98.0004 2.9996 90.525711 2.9996 83.8267406 7.3777699 80.7415611 14.057281 80.5099775 14.5586666 80.7286954 15.1528554 81.230081 15.3844389 81.7314666 15.6160225 82.3256554 15.3973046 82.5572389 14.895919zM81 22C81 20.4386824 81.2107071 18.9065478 81.6221134 17.434096 81.770731 16.9021832 81.4600088 16.3505043 80.928096 16.2018866 80.3961832 16.053269 79.8445043 16.3639912 79.6958866 16.895904 79.2356066 18.5432784 79 20.2564673 79 22 79 22.5522847 79.4477153 23 80 23 80.5522847 23 81 22.5522847 81 22z"/>
            <polygon fill="#FFFFFF" points="91 11 105 14 105 30 91 30"/>
            <g transform="translate(87 11)">
                <path fill="#FFFFFF"
                      d="M0.9951,0 L14.9951,0 C16.6511,0 17.9951,1.343 17.9951,3 L17.9951,5"/>
                <path fill="#263340" fill-rule="nonzero"
                      d="M0.9951,1 L14.9951,1 C16.0992122,1 16.9951,1.8956816 16.9951,3 L16.9951,5 C16.9951,5.55228475 17.4428153,6 17.9951,6 C18.5473847,6 18.9951,5.55228475 18.9951,5 L18.9951,3 C18.9951,0.791009009 17.2036786,-1 14.9951,-1 L0.9951,-1 C0.44281525,-1 -0.0049,-0.55228475 -0.0049,0 C-0.0049,0.55228475 0.44281525,1 0.9951,1 Z"/>
            </g>
            <g transform="translate(87 11)">
                <path fill="#FFFFFF"
                      d="M17.9951,22 L6.9951,22 C5.3381,22 3.9951,20.657 3.9951,19 L3.9951,8 L3.9951,3 C3.9951,1.343 2.6511,0 0.9951,0"/>
                <path fill="#263340" fill-rule="nonzero"
                      d="M17.9951,21 L6.9951,21 C5.89038475,21 4.9951,20.1047153 4.9951,19 L4.9951,3 C4.9951,0.791009009 3.2036786,-1 0.9951,-1 C0.44281525,-1 -0.0049,-0.55228475 -0.0049,0 C-0.0049,0.55228475 0.44281525,1 0.9951,1 C2.09921217,1 2.9951,1.8956816 2.9951,3 L2.9951,19 C2.9951,21.2092847 4.78581525,23 6.9951,23 L17.9951,23 C18.5473847,23 18.9951,22.5522847 18.9951,22 C18.9951,21.4477153 18.5473847,21 17.9951,21 Z"/>
            </g>
            <path fill="#3A8F64"
                  d="M90.9951,15 L84.9951,15 L84.9951,14 C84.9951,12.343 86.3381,11 87.9951,11 C89.6511,11 90.9951,12.343 90.9951,14 L90.9951,15 Z"/>
            <path fill="#263340" fill-rule="nonzero"
                  d="M87.9951,12 C86.8903847,12 85.9951,12.8952847 85.9951,14 L89.9951,14 C89.9951,12.8956816 89.0992122,12 87.9951,12 Z M90.9951,16 L84.9951,16 C84.4428153,16 83.9951,15.5522847 83.9951,15 L83.9951,14 C83.9951,11.7907153 85.7858153,10 87.9951,10 C90.2036786,10 91.9951,11.791009 91.9951,14 L91.9951,15 C91.9951,15.5522847 91.5473847,16 90.9951,16 Z"/>
            <path fill="#FFFFFF"
                  d="M96.9951,30 L96.9951,29 L107.9951,29 L107.9951,30 C107.9951,31.657 106.6511,33 104.9951,33 L93.9951,33 C95.6511,33 96.9951,31.657 96.9951,30"/>
            <path fill="#263340" fill-rule="nonzero"
                  d="M97.4598106,32 L104.9951,32 C106.099212,32 106.9951,31.1043184 106.9951,30 L97.9951,30 C97.9951,30.7285526 97.800236,31.4116387 97.4598106,32 Z M95.9951,30 L95.9951,29 C95.9951,28.4477153 96.4428153,28 96.9951,28 L107.9951,28 C108.547385,28 108.9951,28.4477153 108.9951,29 L108.9951,30 C108.9951,32.208991 107.203679,34 104.9951,34 L93.9951,34 C92.6617667,34 92.6617667,32 93.9951,32 C95.0992122,32 95.9951,31.1043184 95.9951,30 Z"/>
            <path fill="#263340"
                  d="M101.6484,22.7363 C101.6484,23.1353 101.5784,23.5133 101.4374,23.8703 C101.2964,24.2253 101.0974,24.5403 100.8374,24.8113 C100.5784,25.0843 100.2654,25.2983 99.9024,25.4543 C99.5374,25.6103 99.1304,25.6873 98.6834,25.6873 C98.2364,25.6873 97.8324,25.6073 97.4704,25.4483 C97.1114,25.2883 96.8024,25.0743 96.5464,24.8053 C96.2914,24.5383 96.0934,24.2253 95.9534,23.8703 C95.8124,23.5133 95.7444,23.1353 95.7444,22.7363 L95.0004,22.7363 L95.2404,21.7523 L95.7444,21.7523 L95.7444,20.9353 L95.0004,20.9353 L95.2404,19.9523 L95.7444,19.9523 C95.7444,19.5603 95.8124,19.1833 95.9534,18.8243 C96.0934,18.4643 96.2914,18.1503 96.5464,17.8823 C96.8024,17.6143 97.1114,17.4003 97.4704,17.2403 C97.8324,17.0803 98.2364,17.0003 98.6834,17.0003 C99.0994,17.0003 99.4824,17.0683 99.8304,17.2043 C100.1774,17.3403 100.4784,17.5283 100.7364,17.7673 C100.9924,18.0073 101.1954,18.2883 101.3474,18.6083 C101.5004,18.9273 101.5954,19.2673 101.6344,19.6283 L100.2444,19.6283 C100.1794,19.2363 100.0114,18.9063 99.7404,18.6373 C99.4664,18.3703 99.1154,18.2363 98.6834,18.2363 C98.4434,18.2363 98.2264,18.2823 98.0354,18.3743 C97.8434,18.4653 97.6794,18.5903 97.5434,18.7463 C97.4084,18.9023 97.3024,19.0843 97.2324,19.2923 C97.1604,19.5003 97.1234,19.7193 97.1234,19.9523 L99.6194,19.9523 L99.3784,20.9353 L97.1234,20.9353 L97.1234,21.7523 L99.6194,21.7523 L99.3784,22.7363 L97.1234,22.7363 C97.1234,22.9673 97.1604,23.1883 97.2324,23.3953 C97.3024,23.6043 97.4084,23.7863 97.5434,23.9423 C97.6794,24.0973 97.8434,24.2213 98.0354,24.3133 C98.2264,24.4063 98.4434,24.4523 98.6834,24.4523 C98.9234,24.4523 99.1404,24.4063 99.3374,24.3133 C99.5334,24.2213 99.6994,24.0973 99.8364,23.9423 C99.9704,23.7863 100.0784,23.6043 100.1544,23.3953 C100.2284,23.1883 100.2674,22.9673 100.2674,22.7363 L101.6484,22.7363 Z"/>
            <path fill="#263340" fill-rule="nonzero"
                  d="M110.9951,20 L103.9951,20 C103.442815,20 102.9951,20.4477153 102.9951,21 C102.9951,21.5522847 103.442815,22 103.9951,22 L110.9951,22 C111.547385,22 111.9951,21.5522847 111.9951,21 C111.9951,20.4477153 111.547385,20 110.9951,20 Z"/>
            <path fill="#263340" fill-rule="nonzero"
                  d="M107.702207 18.7071068C108.092731 18.3165825 108.092731 17.6834175 107.702207 17.2928932 107.311682 16.9023689 106.678518 16.9023689 106.287993 17.2928932L103.287993 20.2928932C102.897469 20.6834175 102.897469 21.3165825 103.287993 21.7071068L106.287993 24.7071068C106.678518 25.0976311 107.311682 25.0976311 107.702207 24.7071068 108.092731 24.3165825 108.092731 23.6834175 107.702207 23.2928932L105.409314 21 107.702207 18.7071068zM103.9951 26L103.9951 29C103.9951 29.5522847 104.442815 30 104.9951 30 105.547385 30 105.9951 29.5522847 105.9951 29L105.9951 26C105.9951 25.4477153 105.547385 25 104.9951 25 104.442815 25 103.9951 25.4477153 103.9951 26z"/>
            <path fill="#61D3F2"
                  d="M193.543,88.4629 C193.543,100.6129 183.692,110.4629 171.543,110.4629 C159.393,110.4629 149.543,100.6129 149.543,88.4629 C149.543,76.3129 159.393,66.4629 171.543,66.4629 C183.692,66.4629 193.543,76.3129 193.543,88.4629"/>
            <path fill="#263340" fill-rule="nonzero"
                  d="M192.543,88.4629 C192.543,76.8655371 183.140068,67.4629 171.543,67.4629 C159.945285,67.4629 150.543,76.8651847 150.543,88.4629 C150.543,100.060615 159.945285,109.4629 171.543,109.4629 C183.140068,109.4629 192.543,100.060263 192.543,88.4629 Z M194.543,88.4629 C194.543,101.164846 184.244623,111.4629 171.543,111.4629 C158.840715,111.4629 148.543,101.165185 148.543,88.4629 C148.543,75.7606153 158.840715,65.4629 171.543,65.4629 C184.244623,65.4629 194.543,75.7609536 194.543,88.4629 Z"/>
            <path fill="#FFFFFF" fill-rule="nonzero"
                  d="M156.099213,81.357875 C158.860681,75.3801777 164.85573,71.4625 171.5434,71.4625 C172.095685,71.4625 172.5434,71.0147847 172.5434,70.4625 C172.5434,69.9102153 172.095685,69.4625 171.5434,69.4625 C164.06811,69.4625 157.368946,73.8403062 154.283587,80.519125 C154.051972,81.0204964 154.270654,81.6146987 154.772025,81.8463131 C155.273396,82.0779275 155.867599,81.8592463 156.099213,81.357875 Z"/>
            <path fill="#FFFFFF"
                  d="M182.2383,85.2676 L169.8643,97.6426 C169.0833,98.4226 167.8163,98.4226 167.0353,97.6426 L161.7323,92.3386 C160.7563,91.3626 160.7563,89.7796 161.7323,88.8036 C162.7093,87.8276 164.2913,87.8276 165.2673,88.8036 L168.4503,91.9856 L178.7033,81.7326 C179.6783,80.7556 181.2613,80.7556 182.2383,81.7326 C183.2153,82.7086 183.2153,84.2906 182.2383,85.2676"/>
            <path fill="#263340" fill-rule="nonzero"
                  d="M181.531165,84.5605218 C182.117609,83.9740779 182.117609,83.0255221 181.531193,82.4397068 C180.944838,81.8533519 179.995562,81.8533519 179.410407,82.4397068 L169.157407,92.6927068 C168.766926,93.0831877 168.133847,93.0832374 167.743304,92.6928179 L164.560193,89.5107068 C163.974657,88.9251707 163.025543,88.9251707 162.439407,89.5107068 C161.853931,90.0961825 161.853931,91.0460175 162.439473,91.6315599 L167.741954,96.9350404 C168.132533,97.3251199 168.767067,97.3251199 169.157165,96.9355218 L181.531165,84.5605218 Z M177.995469,81.0262181 C179.361038,79.6578481 181.577762,79.6578481 182.945045,81.0251312 C184.312991,82.3916779 184.312991,84.6071221 182.945407,85.9747068 L170.570954,98.3501596 C169.399533,99.5200801 167.500067,99.5200801 166.328127,98.3496401 L161.025193,93.0457068 C159.658669,91.6791825 159.658669,89.4630175 161.025555,88.0961312 C162.393057,86.7300293 164.607943,86.7300293 165.974296,88.0963821 L168.450189,90.5714975 L177.995469,81.0262181 Z"/>
        </g>
    </g>
</svg>